<?xml version="1.0" standalone="no"?> <!DOCTYPE svg PUBLIC "-//W3C//DTD SVG 1.0//EN" "http://www.w3.org/TR/2001/REC-SVG-20010904/DTD/svg10.dtd" > <svg xmlns="http://www.w3.org/2000/svg" width="100%" height="100%">
<defs >
<font id="arberkley" horiz-adv-x="380" ><font-face
    font-family="BERKLEY"
    units-per-em="1000"
    panose-1="2 0 0 0 0 0 0 0 0 0"
    ascent="945"
    descent="-333"
    alphabetic="0" />
<missing-glyph />
<glyph unicode=" " glyph-name="space" />
<glyph unicode="!" glyph-name="exclam" horiz-adv-x="372" d="M158 86Q158 61 144 47Q124 32 114 23Q112 19 103 8Q90 -10 79 -10Q66 -10 49 21T32 72Q32 102 62 140T115 178Q139 178 150 145Q158 121 158 86ZM121 302Q121 312 143 378Q171 458 200 540Q204 552
208 567T218 612T268 676Q298 700 340 719L350 713L354 698Q354 647 284 489Q219 339 198 320Q196 319 153 297Q146 295 132 287Q121 287 121 302Z" />
<glyph unicode="&quot;" glyph-name="quotedbl" horiz-adv-x="370" d="M126 473Q107 473 107 492L98 617Q98 625 93 642T88 664Q88 675 119 696T163 718Q181 718 190 685Q196 662 196 636Q196 602 188 558T169 492L126 473ZM261 492L248 617Q244 642 240 668Q240
684 270 701T317 719Q337 719 344 689Q348 673 348 644Q348 613 342 583Q337 546 332 510Q321 475 279 475Q263 475 261 492Z" />
<glyph unicode="#" glyph-name="numbersign" horiz-adv-x="667" d="M155 52Q137 48 118 37Q65 9 61 7L45 23Q45 47 94 140Q120 188 147 236L83 233Q75 233 67 233T52 232Q27 232 8 235T-18 249Q-10 257 74 276T178 295L233 398Q203 398 168 396T109 392Q87 392
75 406Q94 427 156 440T264 454Q298 518 332 582Q382 665 425 679L448 663Q451 656 453 645T456 627Q456 607 413 545Q355 462 353 458L487 463Q513 515 540 568Q573 631 602 669L629 679L642 673Q652 654 656 645T665 622Q654 592 623 543Q581 477 574 465Q602
465 648 467T704 470Q717 470 725 461Q710 439 642 424Q587 412 546 412Q537 394 527 372T492 293L642 294L659 291L667 284Q636 261 572 249Q522 240 468 240Q441 181 434 163Q407 98 394 37Q373 23 361 16Q331 -2 301 -13L286 3Q296 52 330 124Q358 182 386 241L234
239Q216 204 201 167Q178 109 155 52ZM409 294L461 411Q437 411 388 408T321 404L263 296L409 294Z" />
<glyph unicode="$" glyph-name="dollar" horiz-adv-x="760" d="M483 353Q581 353 639 338Q746 310 746 237Q746 181 660 120Q589 70 481 29Q388 -6 327 -14Q317 -34 305 -75T282 -139L203 -172L191 -150Q195 -119 214 -72Q223 -49 233 -26Q199 -26 150 -33Q37
-49 11 -49Q2 -49 -6 -43T-18 -28Q-9 -6 37 42T105 99Q120 90 136 85T167 79Q186 79 231 81T279 83L348 245Q307 245 224 287Q136 332 136 361Q136 425 214 488Q276 538 378 583Q447 613 526 637Q552 673 565 687Q596 721 616 721L634 702Q634 692 628 679Q626
674 617 658L671 661Q704 661 722 653Q749 641 749 613Q749 587 720 558Q699 537 668 520Q664 521 635 537Q612 549 601 548L567 546L483 353ZM224 410Q224 377 327 367Q386 363 399 362L473 529Q358 505 291 473T224 410ZM372 93Q479 104 551 127T624 178Q624
216 568 231Q530 241 467 241H435L372 93Z" />
<glyph unicode="%" glyph-name="percent" horiz-adv-x="669" d="M337 570Q337 491 300 437Q268 391 195 345Q175 332 162 328T136 323Q87 323 60 357T33 440Q33 511 103 592T242 674Q286 674 311 645T337 570ZM120 454Q120 424 133 404T175 384Q211 384 240 433T269
521Q269 558 256 580Q240 608 206 608Q162 608 138 550Q120 506 120 454ZM636 238Q636 207 631 178T612 126Q589 85 535 41Q474 -9 434 -9Q385 -9 359 24T332 108Q332 178 402 260T541 342Q585 342 610 313T636 238ZM418 122Q418 92 431 72T473 52Q509 52 538 101T567
189Q567 224 554 247Q537 276 504 276Q460 276 436 218Q418 174 418 122ZM82 -47L69 -32Q70 -9 146 106Q213 207 289 315Q334 376 379 438Q447 540 490 596Q584 719 617 718Q632 717 636 705T640 674Q640 657 598 601Q590 591 511 495Q462 435 448 414L226 87Q216
72 204 40T183 -6Q163 -9 144 -18Q86 -46 82 -47Z" />
<glyph unicode="&amp;" glyph-name="ampersand" horiz-adv-x="633" d="M600 135Q614 133 621 127T629 106Q629 83 584 45Q546 12 519 1Q484 17 443 62Q423 85 377 145Q309 75 244 37Q165 -11 93 -11Q56 -11 31 15T6 93Q6 179 105 297Q163 367 260 449Q260 586
311 653T469 720Q495 720 512 693T530 629Q530 609 486 541T425 465L403 477L395 504Q399 521 415 545T436 585Q432 595 411 612T380 630Q367 630 362 612T357 573Q357 501 377 433T432 307Q490 364 504 383Q535 424 551 486Q556 508 572 517Q585 512 591 496T597
460Q597 387 535 309Q492 262 474 242Q509 195 531 174Q566 141 600 135ZM134 142Q134 97 169 97Q210 97 279 155Q303 175 335 210Q312 258 301 283Q285 320 274 363Q214 311 185 271Q134 203 134 142Z" />
<glyph unicode="&apos;" glyph-name="quotesingle" horiz-adv-x="218" d="M126 473Q107 473 107 492L98 617Q98 625 93 642T88 664Q88 675 119 696T163 718Q183 718 191 684Q196 664 196 634Q196 604 189 558T174 491Q161 485 145 479T126 473Z" />
<glyph unicode="(" glyph-name="parenleft" horiz-adv-x="357" d="M398 693L404 682Q400 665 376 637Q365 625 355 613Q257 491 204 372Q142 232 142 95Q142 47 151 -5T171 -107Q165 -121 133 -150T84 -186Q50 -171 29 -98Q13 -42 13 11Q13 125 58 271Q108 433
186 544Q278 675 385 699L398 693Z" />
<glyph unicode=")" glyph-name="parenright" horiz-adv-x="357" d="M344 502Q344 388 299 242Q249 79 170 -33Q78 -164 -29 -186L-41 -180L-47 -169Q-43 -155 -26 -133Q-12 -116 1 -100Q100 23 153 141Q215 281 215 418Q215 462 204 520Q188 604 186 621Q190 632
225 665T272 699Q308 684 328 612Q344 555 344 502Z" />
<glyph unicode="*" glyph-name="asterisk" horiz-adv-x="471" d="M412 452Q412 435 395 435Q377 435 333 451Q306 461 272 476V445Q272 417 264 396Q252 365 229 365Q220 372 216 405T211 488Q174 474 156 469Q119 458 98 458Q80 460 62 462L65 476Q65 479 60
489T53 503Q57 513 102 525Q132 533 163 541Q129 569 111 591T93 626Q102 631 104 646L110 647Q116 647 176 605Q188 597 215 578Q219 611 224 645Q234 687 261 695L270 693Q279 693 295 701Q293 686 299 675Q286 632 280 583Q338 603 371 614T409 626Q418 626
429 615Q435 609 444 596Q431 576 384 553Q353 538 312 524Q355 511 374 501Q412 480 412 452Z" />
<glyph unicode="+" glyph-name="plus" horiz-adv-x="503" d="M465 296Q479 296 486 293T494 279Q494 274 490 267T483 255L467 222Q464 216 446 214T394 211Q373 211 350 211T302 213Q302 200 302 184T303 147Q303 92 298 58T279 24Q266 24 240 42T214 72Q214
93 218 124Q227 195 227 212L154 211H92Q64 211 50 215T35 229Q35 265 73 280Q102 291 156 291Q179 291 197 290T231 288L233 320Q233 363 238 423T262 483Q277 483 296 463T316 427Q316 393 312 353T306 289Q333 289 365 291Q445 296 465 296Z" />
<glyph unicode="," glyph-name="comma" horiz-adv-x="306" d="M226 80Q226 68 225 55T221 38Q211 6 145 -44T43 -95Q26 -95 26 -81Q26 -78 77 -27Q102 -2 102 19V43Q101 55 109 67Q114 74 151 97T196 120Q211 120 218 109T226 80Z" />
<glyph unicode="-" glyph-name="hyphen" horiz-adv-x="297" d="M54 174Q45 174 39 181T32 198Q32 205 37 211T62 234Q64 235 82 257Q94 271 111 271Q147 271 183 270T257 268Q260 268 263 259Q263 258 264 254Q264 228 234 201Q216 185 202 185L180 188Q158 188
101 179Q69 174 54 174Z" />
<glyph unicode="." glyph-name="period" horiz-adv-x="238" d="M174 111Q178 105 181 86T185 55Q185 47 165 28T134 3L88 -9Q73 -9 63 12T53 50Q53 73 87 105T143 138Q149 138 160 127Q162 125 174 111Z" />
<glyph unicode="/" glyph-name="slash" horiz-adv-x="543" d="M13 -90L0 -76Q0 -53 71 65Q134 169 206 279Q248 342 291 406Q355 510 396 568Q485 695 518 695Q533 695 538 683T543 652Q543 635 503 577Q496 567 421 468Q374 406 361 385L152 49Q142 34 131 1T112
-45Q93 -49 74 -59Q17 -89 13 -90Z" />
<glyph unicode="0" glyph-name="zero" horiz-adv-x="503" d="M487 338Q487 232 386 111Q282 -14 179 -14Q109 -14 63 33T17 151Q17 238 66 312Q103 369 183 437Q238 486 250 494Q290 521 333 521Q400 521 445 462Q487 407 487 338ZM151 201Q151 151 168 117Q191
72 236 72Q302 72 342 152Q375 218 375 292Q375 342 356 377Q332 422 285 422Q225 422 185 339Q151 269 151 201Z" />
<glyph unicode="1" glyph-name="one" horiz-adv-x="503" d="M103 231Q97 231 91 234T81 238L72 252Q74 267 80 280Q81 283 107 300Q139 320 172 341Q237 385 271 410Q313 441 367 484Q378 493 396 497T433 504Q445 500 445 488Q445 464 406 350Q372 251 328 141T272
16Q271 15 267 14T256 11T207 -3Q174 -13 160 -13Q146 -13 141 -7T132 17Q214 189 297 362Q214 298 167 265T103 231Z" />
<glyph unicode="2" glyph-name="two" horiz-adv-x="503" d="M273 94Q311 94 352 105T432 128L445 122L451 109Q451 91 401 44T336 -3Q314 -2 303 -2Q290 -2 262 -6T220 -10Q210 -10 183 -11T146 -12Q96 -12 61 -7T20 14Q30 73 116 132Q192 180 269 229Q349 286
349 344Q349 402 285 402Q250 402 215 383Q164 356 152 352Q123 357 117 379Q131 414 202 465T312 516Q383 516 421 494Q470 466 470 399Q470 314 364 228Q313 186 183 113Q201 106 216 102Q244 94 273 94Z" />
<glyph unicode="3" glyph-name="three" horiz-adv-x="503" d="M434 199Q434 115 321 49Q220 -10 127 -10Q92 -10 69 -4Q31 6 31 32Q31 49 52 69T92 94Q113 86 134 79T180 71Q219 71 257 85Q303 102 317 132Q308 157 279 167T216 178Q186 178 159 170T104 152Q93
160 93 176L96 198Q142 243 188 288Q201 285 219 282T250 279Q294 279 327 297Q369 320 369 361Q369 388 343 400T288 413Q255 413 219 399Q181 382 143 366Q127 366 127 385Q127 399 139 411Q200 474 231 494Q279 524 348 524Q401 524 436 497T472 417Q472 372
437 329Q410 296 364 265Q397 261 415 246T434 199Z" />
<glyph unicode="4" glyph-name="four" horiz-adv-x="503" d="M483 193L491 179Q486 138 457 122Q435 110 392 110Q383 110 363 111T332 112Q300 45 293 33Q260 -20 183 -33Q159 -26 159 -3Q159 2 186 53Q202 82 218 112L35 110H23Q13 110 6 112T-5 123Q-2 134
1 146Q8 168 17 186Q35 221 65 261Q148 371 156 386Q174 424 185 448Q206 493 217 500Q219 502 247 514T281 529Q293 526 302 519T311 500Q311 441 198 297Q133 217 116 196H258L362 402Q395 468 407 480Q428 503 490 519Q502 513 502 503Q502 493 463 403Q410
280 370 196Q386 196 402 196T434 197Q449 197 465 197Q477 194 483 193Z" />
<glyph unicode="5" glyph-name="five" horiz-adv-x="503" d="M295 360Q349 360 386 340Q431 315 431 265Q431 169 285 71Q149 -20 47 -20Q30 -20 12 -6T-12 25Q5 67 42 79Q61 85 118 85Q185 85 234 104Q304 131 304 187Q304 222 276 242T211 263Q186 263 165 254Q133
238 101 222L89 237Q89 281 143 395Q201 517 237 517H489Q501 517 509 513T517 497Q517 480 483 444T428 407Q408 407 381 410Q318 417 302 417Q289 417 274 416T234 410L207 346Q232 353 252 356T295 360Z" />
<glyph unicode="6" glyph-name="six" horiz-adv-x="503" d="M382 341Q472 341 472 247Q472 171 350 77Q234 -13 157 -13Q96 -13 56 8Q4 35 4 90Q4 163 91 285Q173 400 280 489Q393 583 458 583Q475 583 487 565T500 528Q500 522 493 510T479 495L409 499Q356 499
279 403Q219 328 188 259Q260 308 302 324T382 341ZM148 117Q148 99 160 93T194 87Q255 87 305 119Q363 156 363 214Q363 235 348 247T310 259Q265 259 207 210T148 117Z" />
<glyph unicode="7" glyph-name="seven" horiz-adv-x="503" d="M302 416Q255 416 212 412T147 397Q137 392 126 383Q97 359 91 356L78 362Q74 372 71 383Q71 418 125 476Q175 530 211 543Q220 541 229 533Q248 518 334 511Q387 507 449 507Q462 507 473 509Q510
516 512 516L523 510L531 494Q509 444 427 348Q320 223 293 184Q226 88 226 23Q226 6 204 -1Q197 -3 185 -3T161 -5Q144 -5 120 -20Q87 -41 80 -43Q65 -37 65 -24Q65 -2 132 100Q189 187 263 288Q309 351 356 414L302 416Z" />
<glyph unicode="8" glyph-name="eight" horiz-adv-x="503" d="M434 172Q434 130 408 94Q399 83 307 33T204 -17Q148 -17 93 31T37 136Q37 188 82 223Q110 244 174 269Q144 290 132 308T120 344Q120 414 198 467Q269 515 343 515Q394 515 430 479T466 391Q466 352
427 317Q403 296 353 268Q393 260 413 237T434 172ZM244 392Q244 362 262 330T308 297Q328 297 340 316T353 356Q353 384 332 415Q308 450 283 450Q266 450 255 431T244 392ZM157 175Q157 139 189 107T258 75Q284 75 300 95T316 143Q316 179 287 208T220 237Q195
237 176 219T157 175Z" />
<glyph unicode="9" glyph-name="nine" horiz-adv-x="503" d="M206 174Q151 174 121 209T91 302Q91 377 184 452T355 528Q417 528 455 486T493 381Q493 227 359 111Q250 16 81 -35Q80 -35 60 -40T35 -46Q23 -46 17 -30T10 0Q10 13 26 37T57 62Q69 55 81 49T102
42Q158 42 219 94Q261 130 306 193Q270 183 250 179T206 174ZM207 348Q207 310 230 282T290 254Q325 254 342 282Q356 305 356 342Q356 381 338 407T282 433Q247 433 227 409T207 348Z" />
<glyph unicode=":" glyph-name="colon" horiz-adv-x="238" d="M217 344Q222 337 225 319T229 288Q229 280 209 261T178 236L131 224Q116 224 107 245T97 284Q97 307 131 339T187 372Q194 372 204 361Q211 354 217 344ZM174 111Q178 105 181 86T185 55Q185 47 165
28T134 3L88 -9Q73 -9 63 12T53 50Q53 73 87 105T143 138Q149 138 160 127Q162 125 174 111Z" />
<glyph unicode=";" glyph-name="semicolon" horiz-adv-x="306" d="M259 344Q263 338 266 319T270 288Q270 280 250 261T219 236L173 224Q158 224 148 244T138 282Q138 300 148 313T186 349T228 372Q235 372 245 361Q251 355 259 344ZM226 80Q226 68 225 55T221
38Q211 6 145 -44T43 -95Q26 -95 26 -81Q26 -78 77 -27Q102 -2 102 19V43Q101 55 109 67Q114 74 151 97T196 120Q211 120 218 109T226 80Z" />
<glyph unicode="&lt;" glyph-name="less" horiz-adv-x="500" d="M255 188Q268 177 302 132T340 71Q340 67 336 54T330 36T313 24T289 22Q261 71 239 110Q214 148 189 169Q155 192 118 188Q77 179 38 170L34 178Q34 181 35 186Q42 199 102 232Q177 269 251 307Q253
318 254 320T257 334Q275 349 353 369Q436 390 463 377L466 370Q463 356 461 352Q459 336 455 334Q447 319 386 297Q359 285 270 255Q193 230 167 216Q196 212 210 208Q235 199 255 188Z" />
<glyph unicode="=" glyph-name="equal" horiz-adv-x="503" d="M459 313Q472 313 481 310T490 295Q490 270 467 245Q452 229 440 229H404H372H345H321H300H282H267H252H240Q221 229 203 229T165 230H153Q143 230 130 230T100 229Q51 229 34 233T17 248Q21 257 23
261Q30 275 30 276Q40 294 66 301T129 308Q154 308 174 307T214 305Q255 305 337 309T459 313ZM441 180Q454 180 462 177T470 163Q470 145 452 120T416 95H374H336H303H273H249H228H210H192H177H165H153Q136 95 119 95T84 96H75Q46 96 39 97Q11 101 11 114L26 142Q37
161 61 168T122 175Q145 175 164 174T203 172Q243 172 322 176T441 180Z" />
<glyph unicode="&gt;" glyph-name="greater" horiz-adv-x="500" d="M246 198Q232 210 198 256T161 318Q161 322 166 335T173 352T189 364T213 367Q240 318 262 279Q286 238 312 218Q346 194 384 198Q423 207 463 216L467 208Q467 206 465 200Q459 187 398 153Q323
117 250 77Q247 65 247 63T243 50Q225 34 148 14Q65 -8 39 6L35 12Q39 26 40 31Q43 46 46 50Q54 64 115 86Q143 99 231 129Q308 155 332 169Q304 173 290 177Q266 187 246 198Z" />
<glyph unicode="?" glyph-name="question" horiz-adv-x="394" d="M41 84Q41 106 80 145T138 184Q152 184 162 144T172 79Q172 61 140 25T93 -12Q81 -12 61 27T41 84ZM364 561Q364 498 325 454Q275 409 226 365Q222 328 220 298T198 267Q193 267 182 273T166 279Q162
279 152 276T139 272Q120 272 120 296Q120 362 189 414T259 503Q259 563 201 585T142 616Q142 628 185 673T236 719Q279 719 321 669T364 561Z" />
<glyph unicode="@" glyph-name="at" horiz-adv-x="931" d="M282 -13Q260 -13 253 6T245 54Q245 137 397 254T638 372Q671 372 696 362T731 328Q687 194 643 60Q708 89 766 147Q836 217 836 278Q836 357 723 407Q630 448 538 448Q376 448 273 375Q152 293 152 138Q152
6 267 -81Q374 -165 508 -165Q582 -165 633 -142Q699 -106 765 -71L776 -81Q750 -158 624 -205Q522 -243 424 -243Q262 -243 155 -154Q38 -58 38 99Q38 137 61 175T106 250Q183 398 295 466T577 535Q691 535 785 472Q892 403 892 293Q892 205 773 85T568 -35Q553
-35 538 -22Q530 2 530 35Q530 52 532 72T536 112Q491 58 422 23T282 -13ZM390 75Q390 67 397 67Q438 67 538 169T638 304Q638 312 626 312Q586 312 488 216T390 75Z" />
<glyph unicode="A" glyph-name="A" horiz-adv-x="708" d="M-65 -236L-83 -228L-88 -216Q-50 -142 41 -30Q110 55 180 141Q168 141 157 141T134 140Q117 140 103 142T76 150L64 168Q84 207 112 221T181 236Q195 236 210 235T240 232Q257 251 367 377T538 571Q629
671 645 678L664 663Q666 651 669 640Q669 587 659 512Q636 339 636 293L638 221Q649 221 662 218T681 207Q678 198 665 186Q648 173 643 169Q643 133 654 90T677 7L670 -8L650 -18Q615 -13 604 -11T569 1Q552 33 541 74T521 162Q479 162 424 156Q296 142 262 142Q220
82 179 22Q103 -87 52 -145Q-23 -231 -65 -236ZM492 219H518L517 273Q517 387 550 508L324 228Q359 228 387 226Q485 219 492 219Z" />
<glyph unicode="B" glyph-name="B" horiz-adv-x="797" d="M777 233Q777 123 610 49Q474 -11 347 -11Q303 -11 263 6Q210 29 210 66Q210 75 252 174Q280 241 333 358Q377 457 383 465T435 504T487 536Q495 536 501 531T511 516Q504 478 458 391Q417 315 375 236T333
129Q333 91 381 69Q418 52 462 52Q529 52 584 85Q649 124 649 187Q649 236 612 255Q585 269 531 269Q519 269 496 268T463 267Q454 267 447 273T437 288Q439 291 576 409Q627 453 627 493Q627 525 576 542T432 560Q285 560 148 516Q125 509 109 503Q77 491 71 485T58
472T42 465Q8 465 0 493L6 506Q137 585 260 625Q397 670 536 670Q616 670 672 645Q749 611 749 541Q749 490 684 428Q649 395 574 343Q649 343 701 324Q777 296 777 233Z" />
<glyph unicode="C" glyph-name="C" horiz-adv-x="729" d="M701 119Q701 73 551 26Q421 -15 355 -15Q227 -15 128 62Q20 146 20 270Q20 313 33 340Q54 374 70 400Q151 532 270 601T547 670Q560 670 573 670T600 671Q650 671 672 660Q705 643 705 600Q705 574 697
563T662 543Q596 560 565 567Q510 580 464 580Q335 580 244 525Q136 460 136 337Q136 240 228 153T418 65Q439 65 459 71L685 133L701 119Z" />
<glyph unicode="D" glyph-name="D" horiz-adv-x="867" d="M305 589Q255 589 202 576Q45 537 40 537L27 549Q49 598 184 642Q301 680 373 680Q546 680 680 606Q843 516 843 355Q843 190 647 65Q472 -46 296 -46Q282 -46 257 -19T225 23Q240 114 279 212Q308 285
363 390Q409 477 456 565Q418 576 380 582T305 589ZM376 115Q376 50 441 50Q547 50 638 118Q738 192 738 295Q738 378 674 440Q632 481 538 529Q436 330 435 328Q376 198 376 115Z" />
<glyph unicode="E" glyph-name="E" horiz-adv-x="599" d="M282 562Q282 617 358 661Q426 700 487 700Q538 700 557 669Q569 650 581 586L575 573L562 568Q543 573 481 606Q451 622 430 627Q425 626 419 620T413 608Q413 567 478 480T544 379Q544 345 496 332Q458
323 420 315Q395 324 371 329T321 334Q260 334 213 309Q154 278 154 222Q154 146 254 97Q338 56 422 56Q458 56 507 72Q544 84 557 87L571 82L576 69Q554 30 439 3Q345 -19 278 -19Q176 -19 104 29Q20 85 20 183Q20 284 148 344Q240 387 365 399Q324 453 311 475Q282
524 282 562Z" />
<glyph unicode="F" glyph-name="F" horiz-adv-x="1079" d="M344 -254Q301 -254 265 -244Q211 -229 211 -196Q211 -135 259 -84Q304 -37 366 -20L390 -41L396 -63Q379 -100 362 -137L373 -173L395 -183Q456 -171 509 -113Q552 -66 592 11Q617 59 648 138L516 141Q504
141 493 141T470 142Q438 142 418 137T374 114L362 120L357 135Q362 187 409 214Q467 248 596 248Q615 248 647 247T691 246L808 540Q750 540 663 549Q469 569 421 569Q310 569 235 553Q104 525 104 456Q104 407 145 384Q180 364 215 344Q217 332 219 318T221 292L208
268L179 259Q128 273 80 320Q26 373 26 423Q26 544 179 622Q308 688 446 688Q539 688 638 681T845 666T1031 658Q1045 653 1051 651L1059 633Q1055 609 1049 588T1032 547Q1021 543 1000 539T947 535H920Q891 469 859 391T796 239Q822 239 836 238Q904 233 905
233Q935 233 975 241Q1032 252 1043 254L1060 245L1062 238Q1052 195 1030 155Q1007 141 954 136T831 131H819Q800 131 783 131T751 132Q713 45 658 -35Q591 -132 519 -187Q431 -254 344 -254Z" />
<glyph unicode="G" glyph-name="G" horiz-adv-x="824" d="M126 14Q89 14 56 48T23 119Q23 233 157 369Q279 493 450 581T737 670Q740 670 750 666T768 658Q786 622 795 583L785 561Q774 555 766 552T756 548Q731 548 696 555Q615 571 594 571Q487 571 336 419T184
157Q184 123 215 123Q302 123 409 197Q463 234 592 350Q704 450 759 478Q771 477 786 457T801 424Q801 383 763 262T681 25T608 -149Q601 -163 555 -198T494 -237L480 -230Q474 -218 474 -214Q474 -176 515 -50T581 120Q590 136 603 147Q638 177 640 179Q648 190
667 257Q680 302 690 340Q604 269 528 213Q413 130 316 78Q195 14 126 14Z" />
<glyph unicode="H" glyph-name="H" horiz-adv-x="1036" d="M419 44Q413 31 353 3T275 -28L263 -22L258 -11Q272 48 307 132Q336 201 365 271L302 272L235 271L247 251Q241 237 220 222T184 206Q168 206 113 229T39 256L31 273Q49 331 128 354Q183 370 284 370Q308
370 348 369T402 368Q466 531 478 551Q532 642 631 662L643 656L648 642Q647 638 624 596T595 541L518 359Q574 351 623 351Q675 351 728 357T811 378Q833 408 871 552Q897 653 992 681L1007 673L1014 656Q1001 606 962 490T908 316Q883 218 883 145Q883 140 888
127Q890 126 893 124T901 120Q919 120 938 136Q966 161 994 186L1009 178L1011 168Q1004 144 992 114T967 61Q932 40 897 19Q846 -10 829 -10Q787 -10 769 16T750 87Q750 100 771 194Q776 215 798 308Q694 281 639 273T536 264Q510 264 483 267Q476 248 453 196Q417
114 417 68Q417 62 417 56Q419 48 419 44Z" />
<glyph unicode="I" glyph-name="I" horiz-adv-x="862" d="M274 233L267 222Q259 218 238 217T208 214L190 228Q189 231 188 235Q184 246 184 249Q184 310 271 416Q354 518 460 596Q573 680 638 680Q726 680 782 627T839 486Q839 277 761 162Q688 54 539 10Q414
-27 197 -27H176Q102 -27 59 -22Q-16 -13 -27 11Q-17 24 67 77T166 130L175 124L176 110Q191 96 255 88T422 80Q603 80 659 140T716 391Q716 466 692 514Q660 578 593 578Q503 578 389 452T274 233Z" />
<glyph unicode="J" glyph-name="J" horiz-adv-x="767" d="M209 -226Q196 -221 190 -219L183 -204Q191 -132 250 -60Q300 1 380 57Q437 97 522 142Q567 268 568 270Q625 433 625 500Q625 532 610 560Q591 595 561 595Q494 595 370 473Q256 361 163 216Q65 63 65
-13Q65 -20 67 -32L50 -52Q30 -56 10 -61Q1 -61 -9 -57T-28 -45Q-31 -35 -34 -26Q-34 66 93 242Q217 414 371 542Q542 685 648 685Q716 685 737 601Q747 561 747 463Q747 424 713 326Q696 276 662 191L726 212L740 207L746 194Q736 171 695 150Q690 148 630 122Q578
22 529 -44Q464 -131 394 -174Q310 -226 209 -226ZM312 -89Q312 -103 328 -103L371 -102Q408 -102 447 -33Q456 -18 494 69Q443 38 391 -3Q312 -64 312 -89Z" />
<glyph unicode="K" glyph-name="K" horiz-adv-x="727" d="M575 101Q614 101 643 133Q680 174 685 176L698 169Q700 161 703 153Q703 91 639 44Q580 0 515 0Q439 0 379 51Q353 73 293 150Q246 210 214 219Q184 205 170 152Q151 82 134 58Q96 5 3 -20L-8 -14L-13
-2Q12 68 66 202Q129 357 173 456Q230 583 245 597Q253 605 291 629T340 657L354 650Q357 644 359 639T361 631Q361 609 301 466Q264 381 228 296Q306 374 337 404Q452 515 532 582Q644 675 679 675L697 665Q702 652 702 647Q702 592 665 552Q594 530 530 487Q481
454 417 395Q360 341 303 288Q353 274 405 224Q445 183 485 142Q531 101 575 101Z" />
<glyph unicode="L" glyph-name="L" horiz-adv-x="615" d="M353 210Q387 210 483 180T604 132Q605 128 610 105T615 78Q615 63 598 37T565 10Q474 51 404 81Q327 115 270 115Q195 115 136 69Q82 15 28 -39L13 -32Q11 -25 8 -18Q8 5 75 115Q156 248 237 382Q233
393 231 399T223 425Q236 463 341 572Q455 691 507 699L520 691Q527 670 530 659Q537 636 537 628Q537 597 465 503Q430 458 316 322Q220 208 190 164Q240 186 269 195Q315 210 353 210Z" />
<glyph unicode="M" glyph-name="M" horiz-adv-x="979" d="M899 565L932 543Q938 529 940 515T942 482Q942 430 918 365T868 233T843 116L848 103L861 98Q875 101 891 117T917 136L931 127L934 115Q934 59 865 24Q808 -5 745 -5Q727 -5 718 21T709 69Q709 116 780
306Q805 374 831 442Q813 421 726 303T589 128Q511 40 470 31Q452 34 435 47T415 77Q431 178 462 295Q488 392 527 508Q443 421 346 303Q234 167 157 54Q64 -83 28 -174Q19 -180 0 -186Q-47 -196 -60 -199L-76 -175Q-76 -136 85 77Q234 273 399 463Q574 664 609
673L635 651Q645 611 656 572Q656 552 608 396Q576 294 545 193Q595 256 646 319Q728 420 783 477Q860 557 899 565Z" />
<glyph unicode="N" glyph-name="N" horiz-adv-x="836" d="M693 297Q693 320 683 348Q659 414 659 432Q659 518 672 579Q694 682 748 702Q760 698 772 692T792 681Q798 665 800 644T803 599V573Q803 502 799 451T780 359Q788 328 792 312Q800 280 800 264Q800 258
797 252T791 239L764 231Q735 122 717 79Q673 -22 613 -22Q563 -22 514 98Q486 166 440 336Q401 480 387 502Q350 463 264 327Q173 184 108 60Q31 -87 31 -132Q31 -146 8 -165T-30 -187L-65 -173Q-74 -155 -74 -135Q-74 -101 45 100Q160 294 279 463Q412 652 444
652Q471 652 517 534Q546 460 598 296Q646 145 659 117Q693 203 693 297Z" />
<glyph unicode="O" glyph-name="O" horiz-adv-x="814" d="M358 680L348 655Q274 609 200 563Q146 501 146 390Q146 266 232 173T441 79Q564 79 648 212Q723 330 723 462Q723 532 673 565Q631 593 557 593Q437 593 368 558Q325 536 281 483T206 413L191 430Q191
531 328 612Q452 685 567 685Q665 685 725 622T785 459Q785 297 668 133Q541 -46 386 -46Q250 -46 139 85Q33 210 33 349Q33 456 133 572Q237 692 342 692L358 680Z" />
<glyph unicode="P" glyph-name="P" horiz-adv-x="801" d="M309 -202Q302 -215 255 -234Q216 -249 193 -255L179 -250L171 -233Q175 -194 201 -130Q222 -80 243 -30Q234 -19 225 -7T214 17Q218 27 243 42Q255 49 278 60Q304 131 331 202Q385 343 416 409Q467 517
497 530L515 507Q508 437 485 359Q477 332 437 223Q405 135 390 77L398 70Q491 98 565 183Q644 273 644 366Q644 487 538 546Q454 593 323 593Q217 593 157 559Q109 514 61 469L36 479Q34 483 31 489T28 496Q28 512 29 524T34 549Q101 612 208 652T410 693Q560
693 660 616Q769 532 769 387Q769 252 705 174Q657 115 549 69Q452 29 356 -11Q339 -54 324 -97T308 -180Q308 -194 309 -202Z" />
<glyph unicode="Q" glyph-name="Q" horiz-adv-x="880" d="M744 -42Q754 -42 771 -33Q816 -9 820 -8L837 -14L843 -29Q837 -47 786 -96T719 -145Q684 -145 594 -111T363 -9Q342 -11 320 -13T279 -15Q211 -15 139 4Q46 28 22 69Q39 106 89 125Q129 140 178 140Q228
140 290 119Q432 71 466 71Q564 71 655 157T746 340Q746 444 671 518T490 593Q388 593 321 534T253 373Q253 366 257 354Q266 328 266 320Q266 279 240 240T175 187Q148 199 137 229T126 293Q126 433 274 563T563 694Q670 694 759 611T848 421Q848 293 752 184Q670
91 539 32Q624 -6 640 -12Q715 -42 744 -42Z" />
<glyph unicode="R" glyph-name="R" horiz-adv-x="824" d="M122 -96L124 -115L109 -139Q81 -147 76 -149Q52 -157 43 -158L24 -146Q22 -140 20 -133T18 -124Q18 -105 97 40Q145 128 260 330T391 563Q268 563 225 553T77 487L62 495Q61 498 60 502Q56 513 56 516Q56
534 92 590T147 658Q151 657 163 653T180 649Q226 649 396 670Q477 680 527 680Q669 680 738 652T807 567Q807 556 801 546Q790 531 779 517Q738 443 664 399Q636 382 541 346Q476 321 456 291Q456 236 527 154T654 72Q685 72 708 85Q744 110 780 135L796 115Q786
72 706 25Q630 -19 583 -19Q487 -19 419 59T351 236Q351 322 438 372Q471 391 600 434Q688 463 688 497Q688 529 641 547T508 565H477Q370 391 347 353Q273 229 223 132Q161 11 122 -96Z" />
<glyph unicode="S" glyph-name="S" horiz-adv-x="910" d="M168 34Q164 21 133 -10Q123 -20 103 -39L112 -43Q184 -35 317 -8Q499 28 608 66Q757 117 757 165Q757 201 686 216Q634 227 544 227Q520 227 494 227T440 225Q363 225 327 244Q294 270 261 297Q233 301
205 306Q174 315 174 347Q174 432 306 520Q418 594 582 648Q732 697 820 697Q832 697 843 695T870 686L890 652Q882 626 843 577T779 515Q765 520 760 530T757 556L735 574Q689 574 583 550Q456 521 374 486Q269 441 269 396Q269 371 314 361T428 351Q469 351 502
352T563 356Q696 356 757 342Q883 313 883 225Q883 173 834 130Q816 114 740 67Q684 26 628 -15Q508 -74 290 -127T-59 -180Q-68 -180 -78 -175T-94 -161Q-84 -135 26 -44T154 48L168 34Z" />
<glyph unicode="T" glyph-name="T" horiz-adv-x="1012" d="M612 9Q612 6 614 -1T620 -14Q628 -17 636 -20T651 -25Q736 -25 862 56Q943 108 979 124L992 119L998 106Q984 57 886 0Q806 -47 690 -89Q592 -125 529 -136L515 -130Q501 -107 495 -96Q483 -75 483 -58Q483
42 521 160Q552 258 613 375Q655 456 724 571Q672 571 568 578T412 585Q322 585 218 556Q78 517 78 451Q78 414 108 391Q144 374 181 357Q184 349 187 339T191 323Q191 313 186 300T175 275L138 258Q78 258 43 315Q13 364 13 428Q13 473 43 503Q52 512 83 537Q203
632 261 658Q342 694 477 694Q559 694 641 690T815 681T969 676Q973 676 978 673T984 669L995 648Q981 597 943 566Q933 565 924 565T901 564Q888 564 862 565T823 566Q741 439 683 298Q612 126 612 9Z" />
<glyph unicode="U" glyph-name="U" horiz-adv-x="724" d="M107 2Q67 2 48 34T28 109Q28 181 54 258Q74 318 117 394Q125 408 195 524Q209 562 224 600Q225 602 239 607T264 618Q296 638 313 648T338 659Q358 659 358 637Q358 630 306 537Q243 425 208 346Q154
225 154 163Q154 157 155 150T161 131L183 116Q265 138 368 270Q390 298 535 515Q627 652 673 675Q694 667 703 644Q694 581 666 485Q631 362 622 325Q600 231 600 161Q600 128 609 111T648 81Q665 85 682 89L695 73Q690 63 636 28T573 -7Q524 -7 499 33T473 126Q473
166 497 265Q509 316 535 409Q472 319 421 255Q333 146 262 83Q170 2 107 2Z" />
<glyph unicode="V" glyph-name="V" horiz-adv-x="885" d="M832 223Q802 137 679 58T459 -21Q363 -21 297 30Q225 86 225 180Q225 269 266 334Q289 370 357 433T452 541Q439 551 371 555T260 560Q215 560 175 553Q107 540 40 527L23 543Q35 575 53 606Q77 648 94
657L108 656Q177 664 203 666Q256 671 299 671Q374 671 438 665T571 642Q579 630 586 613T597 579Q486 500 414 424Q336 342 336 253Q336 176 390 128T522 80Q639 80 687 139Q730 191 730 311Q730 371 704 449Q675 522 647 596Q647 613 683 639T740 673Q768 660
812 554T856 401Q856 352 851 306T832 223Z" />
<glyph unicode="W" glyph-name="W" horiz-adv-x="1029" d="M58 -45Q37 -45 25 -29T12 10Q12 56 67 204Q116 334 182 473T278 637Q294 650 318 661T365 678L382 670Q397 646 404 634Q418 611 418 594Q383 533 349 472Q273 337 213 229Q133 84 118 51Q195 126 276
218Q327 276 423 393Q496 482 569 572Q592 610 604 628T631 656Q638 661 655 667T683 677L699 670Q702 663 704 644T706 614Q666 528 637 433Q604 328 604 263Q604 184 633 128Q671 56 743 56Q817 56 858 141Q891 209 891 292Q891 390 857 458Q809 533 762 609Q765
617 787 638Q831 681 842 681Q899 681 957 558Q1009 448 1009 379Q1009 251 917 110Q816 -45 697 -45Q573 -45 514 52Q466 130 466 260Q466 285 467 299T471 342Q409 262 359 204Q272 103 198 37Q106 -45 58 -45Z" />
<glyph unicode="X" glyph-name="X" horiz-adv-x="944" d="M763 71Q767 71 776 75T792 81Q809 138 819 167Q838 220 885 220Q902 220 909 208T917 177Q917 111 833 46Q753 -16 684 -16Q578 -16 507 71Q454 136 418 256Q365 205 312 154Q252 94 215 42L237 5Q199
-59 95 -138Q-17 -223 -79 -223Q-89 -223 -96 -215T-107 -196Q-95 -156 29 -27Q109 56 261 198Q330 262 399 326Q367 445 336 565Q327 570 318 578T303 595Q310 611 367 645T446 685Q458 678 463 664T469 634Q469 582 477 526Q481 501 497 419Q646 555 674 578Q810
688 880 688Q919 688 919 647Q919 598 883 581Q859 570 806 570Q743 570 606 439Q532 365 514 347Q562 203 633 131Q693 71 763 71Z" />
<glyph unicode="Y" glyph-name="Y" horiz-adv-x="949" d="M312 -224Q305 -224 294 -216T283 -200Q283 -106 348 -17Q402 58 499 127Q571 179 671 229Q692 290 709 346T740 460Q656 367 557 277Q424 156 316 90Q178 5 83 5Q58 5 45 22T31 66Q31 135 93 232Q102
246 216 401Q289 500 305 559Q294 572 292 581Q310 605 385 639T491 673Q504 669 508 668L519 646Q497 588 416 494Q297 355 275 324Q199 218 181 122L196 103Q286 103 435 243Q564 376 693 510Q840 660 913 673L931 654Q928 623 901 543Q879 478 847 390Q805 274
801 263Q826 270 851 278Q890 289 902 289Q928 289 928 260Q928 256 925 250T920 239Q892 226 853 215T777 194Q715 46 592 -78Q447 -224 312 -224ZM383 -79Q378 -89 374 -98T370 -114Q370 -123 380 -128T402 -134Q440 -134 518 -40Q585 41 611 93L637 147Q548
101 492 55Q419 -5 383 -79Z" />
<glyph unicode="Z" glyph-name="Z" horiz-adv-x="885" d="M801 93Q807 96 817 99T834 104Q851 99 864 83T877 50Q877 13 840 -15T765 -44Q760 -44 693 -7Q526 85 521 87Q405 29 298 -3Q173 -40 60 -40Q41 -40 25 -37T-11 -27Q-27 7 -27 43Q-27 77 0 100Q16 113
32 127Q121 216 159 233Q206 254 332 254Q399 254 463 241T598 201Q688 271 730 335Q766 390 766 437Q766 502 669 535Q598 559 515 559Q450 559 398 531Q348 501 299 471L285 478L279 495Q299 595 385 640Q455 677 566 677Q687 677 771 640Q885 590 885 484Q885
422 848 361Q818 311 760 256Q736 233 660 171Q730 132 801 93ZM295 137Q240 137 152 120Q38 98 38 66Q38 47 72 32Q100 20 123 20Q187 20 251 36Q329 56 450 115Q410 125 373 131T295 137Z" />
<glyph unicode="[" glyph-name="bracketleft" horiz-adv-x="428" d="M117 -98L189 -97Q217 -97 229 -102T242 -120Q242 -133 233 -147Q218 -168 203 -190Q172 -184 154 -182T111 -179Q98 -179 64 -186Q44 -190 36 -190Q27 -185 9 -152T-9 -108Q-9 -100 -4 -92Q-2
-88 7 -77Q23 -56 39 -11T61 54Q111 206 115 218Q155 344 181 443Q214 570 214 624Q214 630 214 637Q212 644 212 647Q220 661 234 672Q236 674 283 703Q321 691 358 688T457 685Q474 685 482 671Q473 639 456 617Q433 587 406 587Q387 587 373 590T329 601Q295
478 263 368T192 138T117 -98Z" />
<glyph unicode="\" glyph-name="backslash" horiz-adv-x="553" d="M120 684L136 691Q166 691 231 557Q259 500 300 400Q323 346 369 246Q428 119 444 80Q482 -10 499 -78L492 -94L482 -100Q469 -96 442 -77Q405 -51 399 -48Q384 -24 335 100Q282 239 229 378Q165
501 101 625Q107 657 120 684Z" />
<glyph unicode="]" glyph-name="bracketright" horiz-adv-x="469" d="M353 611L281 610Q257 610 250 612Q234 617 228 633Q234 648 246 668Q262 694 266 703Q297 697 315 695T358 692Q372 692 397 698T434 704Q443 699 461 666T479 622Q479 612 460 570Q434 514
409 459Q373 351 356 298Q311 159 288 70Q254 -59 254 -111Q254 -125 257 -134Q249 -148 236 -159Q231 -163 186 -190Q142 -176 99 -174T13 -172Q-3 -172 -12 -158Q-2 -126 14 -104Q36 -74 63 -74Q81 -74 102 -78Q105 -78 140 -87Q171 22 208 146Q254 298 279 379Q316
495 353 611Z" />
<glyph unicode="^" glyph-name="asciicircum" horiz-adv-x="500" d="M232 455Q219 440 168 400T97 356Q93 356 78 361T57 368T43 387T39 414Q96 446 141 471Q186 501 209 530Q235 569 231 611Q220 658 209 702L219 708Q222 708 229 707Q244 698 281 629Q325 543
368 460Q381 458 384 457T399 454Q418 432 441 343Q466 248 451 217L442 214Q426 217 422 219Q404 223 402 227Q383 237 359 305Q346 337 309 438Q280 526 263 555Q260 523 254 506Q245 476 232 455Z" />
<glyph unicode="_" glyph-name="underscore" horiz-adv-x="500" d="M457 -61Q470 -61 479 -64T488 -77Q488 -100 465 -123Q450 -138 438 -138H402H370H343H319H298H280H265H250H238Q219 -138 201 -138T163 -137H151Q141 -137 128 -137T98 -138Q49 -138 32 -134T15
-121Q19 -112 21 -109Q28 -96 28 -95Q38 -78 64 -72T127 -66Q152 -66 172 -66T212 -68Q253 -68 335 -65T457 -61Z" />
<glyph unicode="`" glyph-name="grave" horiz-adv-x="500" d="M318 694Q322 688 325 677T332 656Q342 625 354 601T385 550Q391 544 391 534Q391 518 375 518Q343 518 282 574T220 661Q220 679 247 694T295 709Q309 709 318 694Z" />
<glyph unicode="a" glyph-name="a" horiz-adv-x="468" d="M40 -11Q19 -11 8 12T-3 61Q-3 142 134 257T359 373Q388 373 417 362Q456 347 456 324Q456 290 423 193T390 42Q390 33 395 18T402 -6Q399 -17 390 -26T370 -36Q361 -36 341 -34T314 -31Q294 -31 287 0T280
74Q280 86 280 96T281 114Q240 59 174 24T40 -11ZM138 80Q138 69 147 69Q185 69 275 169T365 307Q365 314 354 314Q311 314 225 221T138 80Z" />
<glyph unicode="b" glyph-name="b" horiz-adv-x="360" d="M249 374Q355 374 355 271Q355 199 320 143Q290 94 226 50Q191 21 173 8Q139 -17 110 -17Q76 -17 51 26T25 108Q25 153 65 280T152 513Q205 633 237 656Q243 660 272 671T307 682Q318 682 328 668T338
643Q338 636 330 623Q293 560 262 495T204 363Q226 374 249 374ZM141 138Q141 110 146 92T174 73Q217 73 242 129Q262 174 262 223Q262 246 250 264T215 283Q177 283 156 227Q141 186 141 138Z" />
<glyph unicode="c" glyph-name="c" horiz-adv-x="372" d="M359 328Q359 299 350 290T321 281H296Q254 281 198 203T142 81Q142 67 155 67Q197 67 249 97Q297 131 346 165Q357 165 357 152Q357 99 279 43Q207 -9 151 -9Q88 -9 64 -2Q13 13 13 61Q13 124 59 196Q102
264 159 304Q201 333 227 348Q277 377 300 377Q319 377 339 362T359 328Z" />
<glyph unicode="d" glyph-name="d" horiz-adv-x="369" d="M58 602Q66 618 102 633T161 649Q255 649 319 544Q375 452 375 354Q375 233 298 118Q211 -11 95 -11Q58 -11 36 16T13 81Q13 186 90 262Q146 317 261 371Q224 478 168 531Q113 566 58 602ZM135 105Q135
88 140 81T163 74Q214 74 250 142Q281 200 281 257Q281 272 280 280T273 321Q222 282 183 226Q135 158 135 105Z" />
<glyph unicode="e" glyph-name="e" horiz-adv-x="369" d="M241 41Q254 41 269 46Q313 61 315 61L330 56L335 43Q335 18 277 -2Q230 -18 197 -18Q182 -18 176 -17T132 -3Q89 9 46 21Q13 38 13 99Q13 188 112 287T301 386Q327 386 341 368T356 321Q356 294 353 281T340
255Q322 218 305 181Q275 143 239 117T159 81Q194 41 241 41ZM155 159Q155 142 167 142Q190 142 238 199T286 287Q286 307 271 307Q237 307 196 251T155 159Z" />
<glyph unicode="f" glyph-name="f" horiz-adv-x="420" d="M392 103Q392 25 276 -115T92 -256Q54 -256 35 -231Q13 -202 13 -124V-83Q13 -22 36 59Q43 84 82 197Q63 203 45 210Q17 221 17 231Q17 273 52 295Q78 311 125 317Q152 387 180 457Q226 566 267 621Q325
700 383 700Q395 700 400 694T405 677Q403 660 403 654Q403 648 404 636T405 617Q405 606 401 595T386 573Q371 561 365 556Q344 538 295 450Q254 376 231 330Q300 342 369 354Q373 354 378 352T388 347L400 331Q394 284 346 266Q312 253 249 253Q234 253 220 253T192
254Q276 239 322 213Q392 173 392 103ZM102 -62Q102 -91 112 -113Q126 -143 151 -143Q199 -143 248 -74Q294 -9 294 43Q294 98 256 131Q226 157 166 173Q134 82 126 57Q102 -21 102 -62Z" />
<glyph unicode="g" glyph-name="g" horiz-adv-x="444" d="M55 -1Q46 -1 32 10T9 32L7 45Q7 142 119 258T326 375Q354 375 383 372T439 362L452 346Q423 216 409 160Q379 38 347 -58Q309 -174 274 -227Q264 -242 228 -256T169 -271Q105 -271 57 -236Q3 -197 3 -135Q3
-115 26 -75T66 -34Q79 -37 85 -38Q96 -52 124 -130Q146 -192 183 -210Q200 -202 232 -74Q277 104 280 114Q223 64 177 37Q112 -1 55 -1ZM150 97L156 85Q206 108 252 154T323 250Q330 265 338 280Q350 305 350 312Q350 320 342 320Q287 320 219 237T150 97Z" />
<glyph unicode="h" glyph-name="h" horiz-adv-x="409" d="M348 365Q364 365 373 354T383 326Q383 288 371 232Q345 110 345 76L355 56L371 52L378 42L375 20Q372 17 334 -3T288 -27Q227 -17 227 38Q227 74 239 118Q273 242 274 252L268 258Q222 230 173 160Q141
114 101 40Q65 18 26 5L10 16L6 33Q6 46 18 79Q35 126 53 174Q69 238 96 310Q103 328 187 532Q221 615 237 635Q267 672 338 691L351 684Q357 675 357 669Q357 648 317 548Q293 487 238 361Q209 295 181 230Q229 281 258 308Q320 365 348 365Z" />
<glyph unicode="i" glyph-name="i" horiz-adv-x="267" d="M120 417Q120 424 124 432T135 447L150 470Q155 479 186 490T233 502Q260 502 260 473Q260 465 256 454T249 437Q240 415 235 409T207 399T168 392T141 389Q130 389 125 397T120 417ZM228 339Q228 326
186 243T144 114Q144 99 149 91T167 82Q181 82 204 97T233 112Q250 112 250 95Q250 66 208 41Q175 22 139 13Q128 11 108 1T74 -10Q48 -10 31 10T13 58Q13 75 16 88T26 119L92 285Q102 311 109 320T140 337T181 356Q183 358 195 363T208 368Q219 368 223 360T228
339Z" />
<glyph unicode="j" glyph-name="j" horiz-adv-x="321" d="M308 496Q308 469 289 448T243 426Q229 426 222 430T195 456T175 486Q175 496 206 523T250 551Q264 551 286 531T308 496ZM287 164L298 159L303 148Q292 115 237 32Q177 -59 161 -93Q157 -102 129 -175Q110
-224 90 -252Q84 -260 77 -269T58 -278Q43 -278 28 -255T13 -216Q13 -169 47 -73Q60 -37 119 106Q165 216 180 267L172 273Q140 273 101 214Q68 164 57 122Q52 105 38 105Q28 105 24 113T19 132Q19 214 105 307T270 401Q294 401 303 372Q308 355 308 322Q308 310
281 253Q211 106 203 81Q234 116 243 126Q271 156 287 164Z" />
<glyph unicode="k" glyph-name="k" horiz-adv-x="479" d="M29 -15L14 -7L7 11Q11 29 13 39T24 70L125 338Q135 367 186 487T244 617Q258 633 289 652T344 680Q356 671 364 660T380 632Q378 614 343 545T272 405Q228 319 212 282Q274 333 310 358Q375 404 421 404Q447
404 461 381Q472 362 472 334Q472 304 410 236T325 167Q320 169 316 171T308 175L300 190Q304 207 330 233T357 279L349 298L331 306Q305 300 282 287T236 254Q256 252 268 242Q283 164 301 134Q331 83 397 83L418 86Q431 97 437 102Q449 112 458 115L470 108Q473
100 476 92Q476 64 405 23Q339 -15 307 -15Q243 -15 209 60Q190 103 175 190Q151 125 127 61Q98 5 29 -15Z" />
<glyph unicode="l" glyph-name="l" horiz-adv-x="291" d="M308 587L313 574Q313 544 271 452T189 270Q145 167 145 124Q145 117 146 114T153 102L173 93Q195 93 218 109Q251 132 285 156L296 150L301 135Q301 98 222 44T104 -10Q98 -10 58 15T18 47Q18 122 54
218Q87 297 120 376Q157 468 157 528Q164 539 220 564T297 593L308 587Z" />
<glyph unicode="m" glyph-name="m" horiz-adv-x="640" d="M394 384Q409 384 418 369T428 337Q428 305 407 249Q390 206 373 164Q427 220 482 276Q566 359 595 368L615 358L626 310Q626 279 596 182Q581 133 581 105Q581 96 587 84Q597 64 597 63L592 47Q581 40
530 15T474 -10Q462 -10 449 2T430 28Q430 57 450 116Q465 161 481 206Q464 189 411 125Q334 32 272 13Q259 18 245 30T231 55Q231 71 266 153T302 239Q243 170 185 102Q90 -1 42 -1Q26 -1 15 14T3 47Q3 50 57 179T116 323T126 348T140 365Q153 375 168 383T196
391Q211 391 223 375T235 342Q235 330 197 243Q185 214 158 157Q185 188 213 220Q274 289 314 327Q374 384 394 384Z" />
<glyph unicode="n" glyph-name="n" horiz-adv-x="428" d="M363 371Q389 371 400 349Q408 333 408 304Q408 266 388 196T368 92Q368 87 377 74T386 56Q386 40 342 16T278 -9Q257 -9 250 15T242 67Q242 98 256 137Q295 244 296 253L292 260Q283 260 228 184Q167
100 106 16Q75 3 45 -10Q40 -7 27 6T13 25Q13 49 54 184T110 339Q112 342 141 356T174 371Q185 371 196 366T217 351Q220 343 223 335Q223 326 206 293Q183 249 182 246L148 164Q193 221 239 279Q320 371 363 371Z" />
<glyph unicode="o" glyph-name="o" horiz-adv-x="379" d="M285 408Q306 408 336 369T366 307Q366 240 351 177T255 51T108 -11Q73 -11 45 9Q13 32 13 66Q13 96 22 138T46 202Q76 247 120 292Q176 349 213 358Q220 376 243 392T285 408ZM144 93Q144 80 148 69T162
58Q191 58 221 87Q260 125 287 189Q241 229 223 286Q197 254 171 193T144 93Z" />
<glyph unicode="p" glyph-name="p" horiz-adv-x="539" d="M137 -257Q137 -274 93 -291Q68 -301 32 -309L10 -295L7 -282Q7 -259 51 -134T99 0Q79 2 59 4Q33 10 33 27Q33 52 65 77Q82 91 119 109L128 105Q142 120 165 198Q184 262 191 303Q146 279 118 246Q65 184
62 182T51 177T35 173L21 189Q21 245 112 337T264 429Q286 429 297 414T309 375Q309 340 290 275Q282 248 257 177Q304 249 348 292Q415 358 473 358Q506 358 518 326Q526 305 526 264Q526 219 508 184T420 83L433 84Q437 85 443 78T450 65Q421 34 342 11T211 -12Q171
-99 160 -132Q137 -197 137 -257ZM362 91Q381 101 409 156T437 235Q437 245 432 256T419 267Q387 267 325 197T263 95Q263 88 273 86T302 83Q327 84 331 84Q348 84 362 91Z" />
<glyph unicode="q" glyph-name="q" horiz-adv-x="476" d="M65 -10Q36 -10 20 11T3 62Q3 161 152 282Q296 399 395 399Q413 399 438 362T464 306Q464 298 434 229Q420 197 375 96Q339 15 332 -3Q373 49 398 77T437 109L452 101L456 89Q451 67 408 7Q338 -90 326
-109Q278 -183 263 -237Q258 -253 254 -269Q244 -295 211 -295Q191 -295 177 -288T163 -262Q163 -189 206 -71Q206 -70 281 114Q231 69 180 36Q109 -10 65 -10ZM332 318Q271 287 209 221Q141 148 132 89L139 83Q186 83 274 182Q358 276 372 329L367 333Q361 332
350 327T332 318Z" />
<glyph unicode="r" glyph-name="r" horiz-adv-x="339" d="M71 255Q58 255 49 259T40 276Q40 300 73 314Q95 323 126 328Q132 328 145 336T167 344Q184 344 189 327T194 287Q194 262 187 226T178 184L182 178Q185 180 198 200Q231 250 234 254Q230 265 228 276T226
301Q226 339 236 357T278 395Q292 404 300 409Q317 419 322 419Q335 419 348 395T362 356Q362 351 349 326T336 284Q336 272 347 259T359 216Q359 203 335 192T295 180Q286 180 278 188T262 209Q215 127 187 80Q133 -9 82 -9Q66 -9 43 16T20 56Q37 74 45 84Q72
116 77 131T86 169T89 210L88 255H71Z" />
<glyph unicode="s" glyph-name="s" horiz-adv-x="312" d="M214 287Q240 244 260 207T281 137Q281 72 213 28Q153 -11 84 -11Q52 -11 28 -2Q-7 11 -7 37Q-7 61 18 94T67 127Q87 127 107 92T144 56Q156 56 156 72Q156 132 121 184T86 252Q86 288 153 345T260 403Q275
403 290 395T305 373Q305 342 299 322Q290 290 266 290Q251 290 241 295T220 313Q214 299 214 287Z" />
<glyph unicode="t" glyph-name="t" horiz-adv-x="305" d="M151 124Q151 105 163 93T195 81Q213 81 236 89Q275 103 276 103L290 96L296 82Q283 43 223 15Q170 -10 124 -10Q80 -10 53 24T26 104Q26 121 44 165Q57 197 71 229Q61 229 51 229Q39 231 34 241Q39 260
66 279Q103 305 107 310T116 324T122 336Q138 370 153 401Q184 464 197 472Q201 474 216 478T240 486Q255 494 257 495Q267 499 276 499Q291 499 296 486T301 453Q301 447 294 435T281 413L231 316Q252 316 266 315T294 307L299 292Q299 271 276 249T231 226H184Q166
189 159 165T151 124Z" />
<glyph unicode="u" glyph-name="u" horiz-adv-x="410" d="M154 35Q129 20 104 5Q92 -5 85 -8T69 -11Q53 -11 33 11T12 50Q12 85 50 206T110 350Q117 357 150 375T192 394Q204 394 216 370Q220 362 230 334Q186 230 143 127Q143 112 155 112Q174 112 213 176Q249
236 286 296Q331 360 366 360Q379 360 388 339T397 302Q397 273 388 229Q368 131 368 107Q368 97 372 80T378 55Q370 36 341 12T293 -13Q283 -13 269 3T254 31Q254 63 259 98T269 167Q243 133 217 99Q180 54 154 35Z" />
<glyph unicode="v" glyph-name="v" horiz-adv-x="355" d="M156 3Q138 -3 122 -7T96 -12Q61 -12 40 27T18 104Q18 139 35 184Q47 216 70 259Q61 273 61 287Q61 304 115 331T187 359Q198 359 202 350T207 329Q178 268 157 219Q133 164 133 125Q133 104 143 88T174
71Q197 71 218 86T239 124Q239 143 232 182T225 243Q225 302 243 332T316 381Q332 379 340 367Q349 332 349 329Q353 308 353 290V257Q353 205 346 180Q334 138 302 128Q280 75 248 49T156 3Z" />
<glyph unicode="w" glyph-name="w" horiz-adv-x="556" d="M42 -19Q26 -19 20 -10T13 18Q13 43 20 69Q24 85 37 119Q61 191 86 264Q126 357 189 375L209 368Q214 359 220 343T227 320Q227 312 220 299T206 274L144 130Q196 166 230 204Q270 248 289 299Q296 318
321 339T367 361Q378 361 386 351T394 329Q394 308 365 221Q351 179 351 152Q351 128 357 109Q367 78 384 78Q405 78 424 101Q439 119 448 144Q435 181 429 212T422 278Q422 318 440 349Q462 387 500 387Q521 387 533 345Q542 314 542 286V260V248Q542 221 541
204T537 176T514 140T490 106Q461 56 423 26Q376 -11 326 -11Q270 -11 250 48Q238 84 238 152Q177 79 149 51Q79 -19 42 -19Z" />
<glyph unicode="x" glyph-name="x" horiz-adv-x="454" d="M39 -13Q32 -13 23 -1T13 19Q13 45 31 82Q45 111 66 141L78 145Q94 137 103 123Q128 141 142 154T157 175Q157 193 149 224T127 256Q107 256 87 232T55 208Q39 208 39 225Q39 256 67 285Q101 320 168 345Q175
348 196 362T229 376Q246 376 254 365T262 337Q262 322 259 291T256 244Q283 279 323 316Q377 366 405 366Q427 366 434 353T441 315Q441 302 411 256T370 209Q353 209 344 223Q332 242 326 245Q307 236 286 210T265 164Q265 131 288 108T345 85Q360 85 387 98T420
112Q435 112 435 98Q435 66 360 28Q291 -7 253 -7Q206 -7 185 26Q168 53 168 102Q118 50 83 19T39 -13Z" />
<glyph unicode="y" glyph-name="y" horiz-adv-x="394" d="M317 -80L326 -85L330 -96Q330 -150 274 -215T163 -292Q147 -284 136 -258T124 -211Q124 -176 152 -89Q173 -24 211 75Q235 135 259 196Q231 164 206 123Q185 89 163 43Q155 28 147 14Q136 7 114 -1T83
-10Q59 -10 51 20T42 96Q42 109 42 121T43 143Q43 159 43 175T42 210Q42 306 70 345Q94 379 146 390Q176 381 176 351Q176 328 169 287Q152 187 152 161V120Q238 253 248 266Q322 362 378 362Q408 362 408 336Q408 317 364 209T276 -7Q225 -138 214 -197Q247 -183
266 -154Q310 -84 317 -80Z" />
<glyph unicode="z" glyph-name="z" horiz-adv-x="392" d="M288 90Q309 90 325 107Q345 128 353 130L367 124L372 110Q367 88 319 33T248 -23Q235 -23 196 22Q175 46 149 55Q140 51 96 23Q62 1 40 1Q29 1 21 8T12 27Q12 77 59 115T164 153Q177 153 189 150Q216
178 225 190Q246 217 246 238Q246 256 234 267T204 278Q152 278 118 252Q88 223 58 195Q49 195 41 205T33 225Q33 264 137 316T287 369Q315 369 346 350T378 304Q378 260 298 181Q263 147 234 124Q245 110 258 100T288 90Z" />
<glyph unicode="{" glyph-name="braceleft" horiz-adv-x="428" d="M416 698Q433 661 451 625Q397 603 357 583T297 515Q286 488 285 419T266 322Q257 308 237 293Q210 272 205 267Q206 265 239 225Q257 203 257 173Q257 85 196 23Q123 -51 118 -70L131 -87Q152
-93 157 -93Q170 -90 187 -88L199 -96L201 -111Q201 -123 200 -146T199 -180Q193 -191 178 -191Q119 -191 81 -151T42 -51Q42 -13 126 109Q165 166 165 219Q165 258 140 282Q121 300 111 315Q117 321 148 340Q168 352 182 378Q192 397 196 417T201 458Q201 476
199 508T196 549Q196 623 263 667Q321 705 399 705Q403 705 408 702T416 698Z" />
<glyph unicode="|" glyph-name="bar" horiz-adv-x="500" d="M256 700L277 699Q308 687 312 538Q313 475 307 367Q305 309 305 199Q305 58 303 17Q299 -80 284 -149L268 -161L255 -162Q244 -153 224 -124Q198 -85 193 -80Q189 -52 198 80Q210 229 223 377Q215 515
208 654Q230 681 256 700Z" />
<glyph unicode="}" glyph-name="braceright" horiz-adv-x="428" d="M229 610L228 625Q228 642 228 659T229 694Q236 706 250 706Q309 706 348 665T387 565Q387 525 303 404Q263 346 263 295Q263 257 288 232Q307 213 317 199Q310 192 281 173Q260 160 248 138T232
95T227 53Q227 35 229 4T232 -36Q232 -111 165 -154Q107 -191 27 -191Q23 -190 21 -189Q14 -185 12 -184Q-5 -147 -22 -111Q-17 -102 44 -81T131 -1Q142 26 143 94T163 192Q172 206 191 221Q219 243 223 247Q194 281 183 299T171 341Q171 427 232 490Q304 564 310
584L297 602Q281 607 273 607Q261 603 241 603L229 610Z" />
<glyph unicode="~" glyph-name="asciitilde" horiz-adv-x="667" d="M573 665Q560 637 548 616T522 580Q484 540 433 540Q398 540 331 572Q265 605 231 605Q204 605 183 582Q177 576 169 565T152 541Q150 534 145 526Q143 521 140 515T132 500Q131 497 123 499H124Q123
500 119 500Q110 505 102 516T89 544Q81 565 93 583Q107 613 119 635T146 671Q188 711 235 711Q269 711 339 679Q409 647 437 647Q461 647 485 671Q493 679 501 690T517 712Q518 714 522 724T536 751Q537 754 546 752Q550 752 552 751Q573 738 581 707Q583 697
581 686T573 666V665Z" />
</font>
</defs>
</svg>
